<?xml version="1.0" standalone="no"?>
<!DOCTYPE svg PUBLIC "-//W3C//DTD SVG 20010904//EN"
 "http://www.w3.org/TR/2001/REC-SVG-20010904/DTD/svg10.dtd">
<svg version="1.0" xmlns="http://www.w3.org/2000/svg"
 width="41.000000pt" height="41.000000pt" viewBox="0 0 41.000000 41.000000"
 preserveAspectRatio="xMidYMid meet">

<g transform="translate(0.000000,41.000000) scale(0.100000,-0.100000)"
fill="#000000" stroke="none">
<path d="M133 387 c-44 -16 -49 -24 -30 -45 22 -24 55 -121 63 -185 12 -94 23
-86 24 16 0 91 -2 100 -24 120 -14 13 -28 35 -31 50 -6 24 -3 29 26 42 40 17
18 19 -28 2z"/>
<path d="M238 388 c27 -14 28 -34 2 -73 -17 -26 -20 -46 -19 -140 1 -115 6
-114 28 5 10 52 36 122 68 181 2 4 -14 14 -37 23 -45 18 -78 21 -42 4z"/>
<path d="M41 321 c-23 -31 -27 -56 -11 -66 15 -9 60 -89 86 -153 l24 -57 0 52
c0 87 -46 253 -71 253 -4 0 -17 -13 -28 -29z"/>
<path d="M326 328 c-23 -37 -44 -109 -56 -197 -12 -92 -9 -112 10 -54 17 53
57 132 87 171 l24 32 -21 35 c-12 19 -23 35 -26 35 -2 0 -10 -10 -18 -22z"/>
<path d="M372 220 c-20 -31 -62 -147 -62 -171 0 -21 41 14 65 55 21 36 25 55
23 98 l-3 53 -23 -35z"/>
<path d="M0 213 c0 -50 19 -99 54 -139 19 -21 37 -36 40 -33 4 3 -3 35 -14 70
-33 106 -80 166 -80 102z"/>
</g>
</svg>
